<svg id="Layer_1" data-name="Layer 1" xmlns="http://www.w3.org/2000/svg" viewBox="0 0 108 49.09"><defs><style>.cls-1{fill:#fff;}</style></defs><title>_Secondary_Small_Horizontal_White copy</title><path class="cls-1" d="M38.16,29.19A17.28,17.28,0,1,1,20.88,11.91,17.3,17.3,0,0,1,38.16,29.19Zm-.68,0a16.6,16.6,0,0,0-32.43-5c-2.78,8.92,7.65,4.07,12.82,9.24,5.79,5.79,3.13,13.51,9.46,11.06A16.3,16.3,0,0,0,37.48,29.19Z"/><path class="cls-1" d="M45.91,30a1.66,1.66,0,0,0,.47-.26.7.7,0,0,0,.26-.53V22.5a.68.68,0,0,0-.26-.53,1.66,1.66,0,0,0-.47-.26v-.16h4a5,5,0,0,1,2.42.55,3.75,3.75,0,0,1,1.56,1.52,4.44,4.44,0,0,1,.54,2.19,4.71,4.71,0,0,1-.54,2.28,3.74,3.74,0,0,1-1.55,1.55,5,5,0,0,1-2.43.56h-4ZM50,30a1.6,1.6,0,0,0,1.48-1A6.23,6.23,0,0,0,52,26.2c0-.2,0-.35,0-.46a6.57,6.57,0,0,0-.68-2.88,1.83,1.83,0,0,0-1.64-1.08h0a.86.86,0,0,0-.46.19.63.63,0,0,0-.23.53v6.75a.71.71,0,0,0,.26.52.73.73,0,0,0,.43.2Z"/><path class="cls-1" d="M61.73,24.69a6.93,6.93,0,0,1-.22,1.54,13.31,13.31,0,0,1-.61,1.85,15.84,15.84,0,0,1-1.63,3.08,2.29,2.29,0,0,1-1.78,1.21,1,1,0,0,1-.63-.25,5.72,5.72,0,0,1-.71-.7.49.49,0,0,1-.14-.34.85.85,0,0,1,.2-.51.55.55,0,0,1,.46-.26.83.83,0,0,1,.52.23.71.71,0,0,1,.26.53,1.67,1.67,0,0,1-.12.49,1.3,1.3,0,0,0-.11.42.18.18,0,0,0,.07.17.2.2,0,0,0,.14.05.7.7,0,0,0,.48-.27.86.86,0,0,0,.25-.56.55.55,0,0,0,0-.17l-1.39-3.82c-.09-.32-.22-.71-.39-1.16a2.74,2.74,0,0,0-.45-.87.77.77,0,0,0-.31-.19,1.4,1.4,0,0,0-.44-.05l-.1-.08a1.52,1.52,0,0,1,.57-.57,5.66,5.66,0,0,1,.93-.52,2.05,2.05,0,0,1,.68-.22c.1,0,.19.11.29.35s.22.63.39,1.18L59.64,30a5.13,5.13,0,0,0,.45-.94,5.73,5.73,0,0,0,.38-2,3,3,0,0,0-.3-1.42,1,1,0,0,0-.9-.54l-.1-.08a1.57,1.57,0,0,1,.61-.6,6,6,0,0,1,1-.54,1.23,1.23,0,0,1,.62-.16C61.61,23.83,61.73,24.16,61.73,24.69Z"/><path class="cls-1" d="M69.39,30.07v.13H66.25v-.13a.8.8,0,0,0,.61-.66V25.67a1.11,1.11,0,0,0-.29-.84,1,1,0,0,0-.71-.27.89.89,0,0,0-.4.11,1.39,1.39,0,0,0-.36.33v4.41a.8.8,0,0,0,.61.66v.13H62.58v-.13a.79.79,0,0,0,.61-.66v-3a8.1,8.1,0,0,0,0-.85.49.49,0,0,0-.19-.36,1,1,0,0,0-.55-.11L62.35,25a2.45,2.45,0,0,1,.66-.57,6.82,6.82,0,0,1,1-.52,2,2,0,0,1,.64-.22c.08,0,.16.09.25.28a2.31,2.31,0,0,1,.22.7,5.39,5.39,0,0,1,1.1-.73,2.4,2.4,0,0,1,.88-.3,1.56,1.56,0,0,1,.75.2,1.74,1.74,0,0,1,.67.63,1.91,1.91,0,0,1,.31,1v3.87A.79.79,0,0,0,69.39,30.07Z"/><path class="cls-1" d="M70.38,29.43a2.06,2.06,0,0,1-.24-.91,1.44,1.44,0,0,1,.21-.77,2.72,2.72,0,0,1,1.25-.94,8.42,8.42,0,0,1,2-.56v-.36a1.1,1.1,0,0,0-.25-.8,1,1,0,0,0-.58-.31,4.34,4.34,0,0,0-.78-.06h-.31a.47.47,0,0,0-.2.1.25.25,0,0,0-.08.2,1.61,1.61,0,0,0,.1.45,1.36,1.36,0,0,0,0,.2.79.79,0,0,1,0,.23.6.6,0,0,1-.12.36.83.83,0,0,1-.3.26.54.54,0,0,1-.32.09.5.5,0,0,1-.41-.24.82.82,0,0,1-.17-.46.4.4,0,0,1,.13-.31,8,8,0,0,1,1.28-1.17,3.09,3.09,0,0,1,1.35-.65,4.23,4.23,0,0,1,.73-.06,1.69,1.69,0,0,1,1.11.32,1.64,1.64,0,0,1,.52.93,8,8,0,0,1,.15,1.58v1a8.1,8.1,0,0,0,0,.85.49.49,0,0,0,.19.36.94.94,0,0,0,.55.11l.07.08a2.22,2.22,0,0,1-.68.63,6.39,6.39,0,0,1-1,.52,1.28,1.28,0,0,1-.61.15c-.06,0-.12-.1-.18-.22a1.53,1.53,0,0,1-.17-.46l-.24.15a4.73,4.73,0,0,1-1,.42,3.15,3.15,0,0,1-.82.16A1.37,1.37,0,0,1,70.38,29.43Zm3.33-.08a3.53,3.53,0,0,1-.08-.78V26.48a4.55,4.55,0,0,0-1.3.47,1.21,1.21,0,0,0-.44.43,1.07,1.07,0,0,0-.16.59,1.57,1.57,0,0,0,.27.85,1.49,1.49,0,0,0,.5.5,1.34,1.34,0,0,0,.65.17,1.44,1.44,0,0,0,.47-.09Z"/><path class="cls-1" d="M87.42,30.07v.13H84.27v-.13a.79.79,0,0,0,.61-.66V25.78a1.07,1.07,0,0,0-.29-.84,1,1,0,0,0-.71-.27.84.84,0,0,0-.42.12,1.19,1.19,0,0,0-.38.36,2.87,2.87,0,0,1,.07.5v3.76a.79.79,0,0,0,.61.66v.13H80.62v-.13a.8.8,0,0,0,.61-.66V25.78a1.11,1.11,0,0,0-.29-.84,1,1,0,0,0-.71-.27.72.72,0,0,0-.39.11,1.33,1.33,0,0,0-.37.31,2,2,0,0,1,0,.28v4a.79.79,0,0,0,.61.66v.13H77v-.13a.8.8,0,0,0,.61-.66v-3a8.1,8.1,0,0,0,0-.85.53.53,0,0,0-.19-.36,1,1,0,0,0-.55-.11L76.72,25a2.52,2.52,0,0,1,.71-.59,8.17,8.17,0,0,1,1-.54c.33-.15.52-.2.59-.17s.16.15.25.35a3.73,3.73,0,0,1,.19.72,5.15,5.15,0,0,1,1.09-.72,2.4,2.4,0,0,1,.88-.3,1.71,1.71,0,0,1,.9.28,1.66,1.66,0,0,1,.67.84,4.53,4.53,0,0,1,1.14-.79,2.56,2.56,0,0,1,1-.33,1.56,1.56,0,0,1,.74.2,1.84,1.84,0,0,1,.68.63,2,2,0,0,1,.31,1v3.76A.78.78,0,0,0,87.42,30.07Z"/><path class="cls-1" d="M91.29,30.07v.13H88.15v-.13a.8.8,0,0,0,.61-.66V26.3a4.2,4.2,0,0,0-.05-.75.44.44,0,0,0-.2-.33.87.87,0,0,0-.52-.11L87.92,25a2.24,2.24,0,0,1,.73-.57,7.76,7.76,0,0,1,1.09-.52,2.67,2.67,0,0,1,.75-.22c.08,0,.13.09.16.26s0,.48,0,.89v4.54A.79.79,0,0,0,91.29,30.07Zm-2.41-7.16a1.09,1.09,0,0,1-.29-.78,1,1,0,0,1,1.07-1.06,1,1,0,0,1,1.06,1.06,1.06,1.06,0,0,1-.3.78,1,1,0,0,1-.76.29A1,1,0,0,1,88.88,22.91Z"/><path class="cls-1" d="M97.73,28.4a2.89,2.89,0,0,1-.6.9,3.52,3.52,0,0,1-1,.74,2.47,2.47,0,0,1-1.15.28,2.54,2.54,0,0,1-1.47-.44,3,3,0,0,1-1-1.19A3.64,3.64,0,0,1,92.13,27h0a3.71,3.71,0,0,1,.39-1.73,2.86,2.86,0,0,1,1.09-1.17,3,3,0,0,1,2.49-.25,3.18,3.18,0,0,1,.85.39.93.93,0,0,1,.42.47.88.88,0,0,1,0,.2.87.87,0,0,1-.16.52.5.5,0,0,1-.44.23.88.88,0,0,1-.55-.19A.57.57,0,0,1,96,25a.72.72,0,0,1,0-.17.51.51,0,0,1,0-.13,1.17,1.17,0,0,0,0-.26.5.5,0,0,0-.15-.37,1.1,1.1,0,0,0-.73-.17c-.31,0-.53.29-.67.87a10.66,10.66,0,0,0-.2,2.26,3.26,3.26,0,0,0,.46,1.68,1.23,1.23,0,0,0,1,.59,1.83,1.83,0,0,0,.87-.26,4,4,0,0,0,.91-.78Z"/><path class="cls-1" d="M50,42.77a2.79,2.79,0,0,1-.63.58,6.3,6.3,0,0,1-.83.5c-.27.13-.43.18-.5.14-.32-.14-1.33-1.44-3.05-3.9h0a2.64,2.64,0,0,1-.52-.17v3a.73.73,0,0,0,.26.53,1.72,1.72,0,0,0,.48.26v.16H41.47V43.7a1.66,1.66,0,0,0,.47-.26.73.73,0,0,0,.26-.53V36a.77.77,0,0,0-.61-.66v-.13h3.55a9.85,9.85,0,0,1,2.06.17,2.33,2.33,0,0,1,1.29.7A2.3,2.3,0,0,1,49,37.66a2,2,0,0,1-.5,1.37,3,3,0,0,1-1.41.83c.59.77,1,1.35,1.35,1.73a7.55,7.55,0,0,0,.8.84,1,1,0,0,0,.59.26h.11Zm-5-3a1.83,1.83,0,0,0,.61-.15A1.65,1.65,0,0,0,46.3,39a2.59,2.59,0,0,0,.33-1.43,2.22,2.22,0,0,0-.51-1.76,1.64,1.64,0,0,0-1-.39.66.66,0,0,0-.5.14,1,1,0,0,0-.13.59v3.51A.75.75,0,0,0,45,39.82Z"/><path class="cls-1" d="M56,42.05a2.89,2.89,0,0,1-.59.91,3.3,3.3,0,0,1-1,.73,2.48,2.48,0,0,1-1.15.29,2.62,2.62,0,0,1-1.47-.44,3,3,0,0,1-1-1.19,3.58,3.58,0,0,1-.38-1.66A3.72,3.72,0,0,1,50.84,39a2.79,2.79,0,0,1,1.08-1.17,3,3,0,0,1,1.58-.42,2.84,2.84,0,0,1,1.73.51,1.6,1.6,0,0,1,.69,1.36,1.35,1.35,0,0,1,0,.22,1.29,1.29,0,0,1-.88,1,7.59,7.59,0,0,1-2.39.5,3,3,0,0,0,.5,1.5,1.19,1.19,0,0,0,1,.51,1.73,1.73,0,0,0,.87-.26,3.82,3.82,0,0,0,.91-.76Zm-3.43-2.21c0,.15,0,.43,0,.84a4.83,4.83,0,0,0,.79-.19,1.38,1.38,0,0,0,.6-.41,1.58,1.58,0,0,0,.34-.86,2.91,2.91,0,0,0,0-.47,1.42,1.42,0,0,0-.24-.91.78.78,0,0,0-.65-.29C52.9,37.55,52.61,38.31,52.61,39.84Z"/><path class="cls-1" d="M63.67,43.72v.14H60.53v-.14a.78.78,0,0,0,.61-.65l0-4.68v-1c0-.35,0-.58,0-.7a.75.75,0,0,1-.22.25.48.48,0,0,1-.27.09.63.63,0,0,1-.35-.09.91.91,0,0,1-.33-.29.63.63,0,0,1-.13-.39.71.71,0,0,1,.07-.29l.09-.2a1,1,0,0,0,.13-.42.18.18,0,0,0-.07-.16.42.42,0,0,0-.25-.1c-.19,0-.34.18-.44.54a4.48,4.48,0,0,0-.15,1.2V38h.86v.35h-.86v4.71a.76.76,0,0,0,.61.65v.14H56.65v-.14a.76.76,0,0,0,.61-.65V38.36h-.53V38h.53v-.33A8.47,8.47,0,0,1,57.4,36a1.69,1.69,0,0,1,.52-1,1.47,1.47,0,0,1,1.13-.29A2.34,2.34,0,0,1,60,35a3.09,3.09,0,0,1,.83.59A7.56,7.56,0,0,1,62,35a3.13,3.13,0,0,1,.85-.27c.09,0,.15.1.17.3s0,.55,0,1v7A.77.77,0,0,0,63.67,43.72Z"/><path class="cls-1" d="M70.07,42.05a2.89,2.89,0,0,1-.59.91,3.3,3.3,0,0,1-1,.73,2.52,2.52,0,0,1-1.16.29,2.61,2.61,0,0,1-1.46-.44,3,3,0,0,1-1.05-1.19,4,4,0,0,1,0-3.4,2.83,2.83,0,0,1,1.07-1.17,3,3,0,0,1,1.58-.42,2.85,2.85,0,0,1,1.74.51A1.6,1.6,0,0,1,70,39.23c0,.09,0,.17,0,.22a1.29,1.29,0,0,1-.88,1,7.66,7.66,0,0,1-2.39.5,3,3,0,0,0,.49,1.5,1.21,1.21,0,0,0,1,.51,1.73,1.73,0,0,0,.88-.26,3.79,3.79,0,0,0,.9-.76Zm-3.44-2.21q0,.22,0,.84a4.46,4.46,0,0,0,.78-.19,1.35,1.35,0,0,0,.61-.41,1.58,1.58,0,0,0,.34-.86c0-.12,0-.27,0-.47a1.42,1.42,0,0,0-.24-.91.76.76,0,0,0-.65-.29C66.93,37.55,66.63,38.31,66.63,39.84Z"/><path class="cls-1" d="M76.45,42.05a2.72,2.72,0,0,1-.59.91,3.3,3.3,0,0,1-1,.73,2.48,2.48,0,0,1-1.15.29,2.62,2.62,0,0,1-1.47-.44,3,3,0,0,1-1-1.19,3.64,3.64,0,0,1-.38-1.65h0A3.71,3.71,0,0,1,71.25,39a2.86,2.86,0,0,1,1.09-1.17,3,3,0,0,1,1.57-.42,3.24,3.24,0,0,1,.92.16,3.53,3.53,0,0,1,.85.4.9.9,0,0,1,.42.47.81.81,0,0,1,0,.19.9.9,0,0,1-.16.53.5.5,0,0,1-.44.23.92.92,0,0,1-.56-.19.6.6,0,0,1-.26-.51c0-.06,0-.12,0-.17s0-.09,0-.12a1.26,1.26,0,0,0,0-.27.49.49,0,0,0-.15-.36,1,1,0,0,0-.73-.17c-.31,0-.53.29-.67.87a10.6,10.6,0,0,0-.2,2.26,3.17,3.17,0,0,0,.46,1.68,1.21,1.21,0,0,0,1,.59,1.69,1.69,0,0,0,.86-.27,3.52,3.52,0,0,0,.92-.77Z"/><path class="cls-1" d="M80.22,42.69a2.45,2.45,0,0,1-.66.57,9,9,0,0,1-1,.53A2.27,2.27,0,0,1,78,44c-.06,0-.13-.07-.22-.21a2.51,2.51,0,0,1-.21-.61,3.58,3.58,0,0,1-.09-.83V37.92h-.51v-.11a1.79,1.79,0,0,0,.62-.29,5.53,5.53,0,0,0,.83-.71,5.17,5.17,0,0,0,.76-1h.23v1.73h.83v.35h-.83v3.24c0,.45,0,.77,0,.94a.52.52,0,0,0,.19.39.92.92,0,0,0,.55.13Z"/><path class="cls-1" d="M84.13,43.72v.14H81v-.14a.77.77,0,0,0,.61-.65V40a5.9,5.9,0,0,0,0-.75.53.53,0,0,0-.21-.34,1,1,0,0,0-.52-.11l-.07-.07a2.24,2.24,0,0,1,.73-.57,9.26,9.26,0,0,1,1.1-.53,2.94,2.94,0,0,1,.74-.22c.08,0,.13.09.16.27s0,.48,0,.89v4.54A.78.78,0,0,0,84.13,43.72Zm-2.4-7.16a1.13,1.13,0,0,1,0-1.53,1.07,1.07,0,0,1,1.83.76,1,1,0,0,1-1.06,1.07A1,1,0,0,1,81.73,36.56Z"/><path class="cls-1" d="M85.67,43.07a3.32,3.32,0,0,1-.82-2.38,3.7,3.7,0,0,1,.4-1.77,2.85,2.85,0,0,1,1.1-1.18A3.09,3.09,0,0,1,88,37.33a3,3,0,0,1,2.29.87,3.6,3.6,0,0,1,.83,2.51,3.37,3.37,0,0,1-.4,1.66,2.81,2.81,0,0,1-1.1,1.14,3.19,3.19,0,0,1-1.61.41A3,3,0,0,1,85.67,43.07Zm2.83.36a2.68,2.68,0,0,0,.4-.91,5.94,5.94,0,0,0,.16-1.43,4,4,0,0,0,0-.41,8.76,8.76,0,0,0-.23-1.75,3.23,3.23,0,0,0-.43-1.07.69.69,0,0,0-.51-.35.64.64,0,0,0-.46.3,2.68,2.68,0,0,0-.38.92,6.43,6.43,0,0,0-.15,1.5c0,.23,0,.42,0,.55a7.78,7.78,0,0,0,.23,1.63,3,3,0,0,0,.44,1c.16.22.32.33.47.33A.65.65,0,0,0,88.5,43.43Z"/><path class="cls-1" d="M98.73,43.72v.14H95.59v-.14a.77.77,0,0,0,.61-.65V39.32a1.1,1.1,0,0,0-.29-.83,1,1,0,0,0-.71-.27.78.78,0,0,0-.4.11,1.53,1.53,0,0,0-.36.32l0,.38v4a.76.76,0,0,0,.6.65v.14H91.92v-.14a.77.77,0,0,0,.61-.65v-3a8.1,8.1,0,0,0,0-.85.49.49,0,0,0-.19-.36,1,1,0,0,0-.55-.12l-.07-.07a2.45,2.45,0,0,1,.66-.57,9,9,0,0,1,1-.53,2.32,2.32,0,0,1,.64-.22c.08,0,.16.1.25.29a2.31,2.31,0,0,1,.22.7,5,5,0,0,1,1.1-.73,2.4,2.4,0,0,1,.88-.3,1.56,1.56,0,0,1,.75.2,1.74,1.74,0,0,1,.67.63,1.91,1.91,0,0,1,.31,1v3.87A.78.78,0,0,0,98.73,43.72Z"/><path class="cls-1" d="M100.52,43.85a3.66,3.66,0,0,1-.87-.3.91.91,0,0,1-.4-.29.19.19,0,0,1,0-.1,2.25,2.25,0,0,1,.19-.72,3,3,0,0,1,.42-.74l.12,0a2.73,2.73,0,0,0,.16.91,1.84,1.84,0,0,0,.53.79,1.35,1.35,0,0,0,.93.32,2.44,2.44,0,0,0,1.08-.24.77.77,0,0,0,.5-.65.8.8,0,0,0-.09-.41,1.09,1.09,0,0,0-.41-.38,4.44,4.44,0,0,0-.94-.39,5.64,5.64,0,0,1-1.79-.85,1.4,1.4,0,0,1-.61-1.16,2.25,2.25,0,0,1,.32-1.2,2.22,2.22,0,0,1,.87-.85,2.47,2.47,0,0,1,1.25-.31,5.39,5.39,0,0,1,1.13.1,3.77,3.77,0,0,1,.75.23.88.88,0,0,1,.3.21.9.9,0,0,1,0,.38c-.06.2-.14.41-.23.64a2,2,0,0,1-.31.52l-.12,0a2,2,0,0,0-.15-.83,1.56,1.56,0,0,0-.49-.69,1.36,1.36,0,0,0-.83-.31,1.07,1.07,0,0,0-.57.16,1.3,1.3,0,0,0-.42.42.93.93,0,0,0-.16.51.77.77,0,0,0,.14.47,1.1,1.1,0,0,0,.51.34,7.25,7.25,0,0,0,1.09.32,3.16,3.16,0,0,1,1.55.74,1.76,1.76,0,0,1,.5,1.28,1.91,1.91,0,0,1-.79,1.63,3.32,3.32,0,0,1-2,.58A4.16,4.16,0,0,1,100.52,43.85Z"/><path class="cls-1" d="M34.79,10.08a7.46,7.46,0,1,1,7.46,7.46A7.46,7.46,0,0,1,34.79,10.08Zm13.77,2.67c1-2.61-2.18-1.51-4.57-3.9-2.13-2.14-.13-6.44-3.81-5.3a6.85,6.85,0,0,0,2.06,13.39A6.75,6.75,0,0,0,48.56,12.75Z"/></svg>