<svg id="Layer_1" data-name="Layer 1" xmlns="http://www.w3.org/2000/svg" viewBox="0 0 360 90"><defs><style>.cls-1{fill:#fff;}</style></defs><title>_Primary_Med_Horizontal_White</title><path class="cls-1" d="M71.41,54.11A33.91,33.91,0,1,1,37.51,20.2,33.94,33.94,0,0,1,71.41,54.11Zm-1.32,0A32.58,32.58,0,0,0,6.44,44.28c-5.45,17.52,15,8,25.17,18.14C43,73.77,37.74,88.93,50.18,84.12,62,79.54,70.09,67.58,70.09,54.11Z"/><path class="cls-1" d="M84.62,60.86a4.35,4.35,0,0,0,1.08-.59,1.61,1.61,0,0,0,.58-1.21V43.72a1.61,1.61,0,0,0-.58-1.2,4.39,4.39,0,0,0-1.08-.6v-.36h9.11a11.41,11.41,0,0,1,5.51,1.26,8.68,8.68,0,0,1,3.54,3.46,10,10,0,0,1,1.22,5,10.65,10.65,0,0,1-1.22,5.17A8.64,8.64,0,0,1,99.25,60a11.26,11.26,0,0,1-5.52,1.27H84.62Zm9.3-.16a3.63,3.63,0,0,0,3.35-2.34,14,14,0,0,0,1.17-6.22q0-.69,0-1a14.62,14.62,0,0,0-1.54-6.54,4.14,4.14,0,0,0-3.72-2.46h0a2,2,0,0,0-1,.44,1.42,1.42,0,0,0-.54,1.19V59.06a1.7,1.7,0,0,0,.6,1.19,1.76,1.76,0,0,0,1,.45Z"/><path class="cls-1" d="M120.56,48.71a15.19,15.19,0,0,1-.5,3.5,29.25,29.25,0,0,1-1.38,4.19,37,37,0,0,1-3.7,7q-1.92,2.75-4.06,2.74a2.25,2.25,0,0,1-1.42-.57A14.67,14.67,0,0,1,107.88,64a1.12,1.12,0,0,1-.31-.77,1.92,1.92,0,0,1,.45-1.17,1.3,1.3,0,0,1,1-.58,1.82,1.82,0,0,1,1.18.53,1.56,1.56,0,0,1,.59,1.19,3.66,3.66,0,0,1-.28,1.13,2.84,2.84,0,0,0-.24.94.42.42,0,0,0,.16.39.41.41,0,0,0,.31.11,1.55,1.55,0,0,0,1.09-.61,1.84,1.84,0,0,0,.57-1.27,1.55,1.55,0,0,0-.06-.39l-3.15-8.66c-.21-.74-.5-1.62-.89-2.65a6.55,6.55,0,0,0-1-2,1.86,1.86,0,0,0-.71-.43,3.63,3.63,0,0,0-1-.12l-.22-.17a3.58,3.58,0,0,1,1.28-1.3A13.56,13.56,0,0,1,108.81,47a4.85,4.85,0,0,1,1.53-.5c.22,0,.44.27.65.8s.52,1.44.9,2.69l3.94,10.88a12.78,12.78,0,0,0,1-2.13,13.49,13.49,0,0,0,.86-4.62,6.63,6.63,0,0,0-.69-3.22,2.23,2.23,0,0,0-2-1.24l-.22-.17a3.61,3.61,0,0,1,1.38-1.37,14.21,14.21,0,0,1,2.26-1.22c.76-.32,1.23-.44,1.39-.37Q120.56,46.88,120.56,48.71Z"/><path class="cls-1" d="M138,60.92v.3h-7.14v-.3a1.74,1.74,0,0,0,1.38-1.5v-8.5a2.46,2.46,0,0,0-.65-1.89A2.22,2.22,0,0,0,130,48.4a1.8,1.8,0,0,0-.91.27,2.77,2.77,0,0,0-.81.73l0,.86v9.16a1.74,1.74,0,0,0,1.38,1.5v.3H122.5v-.3a1.74,1.74,0,0,0,1.38-1.5V52.67a17.09,17.09,0,0,0-.07-1.94,1.12,1.12,0,0,0-.43-.82,2.22,2.22,0,0,0-1.24-.26l-.17-.17a5.9,5.9,0,0,1,1.51-1.3A16.43,16.43,0,0,1,125.64,47a4.78,4.78,0,0,1,1.45-.5c.17,0,.36.21.57.64a6.19,6.19,0,0,1,.49,1.6,11.57,11.57,0,0,1,2.5-1.66,5.42,5.42,0,0,1,2-.69,3.65,3.65,0,0,1,1.69.46,4.12,4.12,0,0,1,1.53,1.42,4.5,4.5,0,0,1,.71,2.39v8.77A1.76,1.76,0,0,0,138,60.92Z"/><path class="cls-1" d="M140.22,59.48a4.68,4.68,0,0,1-.56-2.08,3.14,3.14,0,0,1,.5-1.74A6.13,6.13,0,0,1,143,53.51a19.87,19.87,0,0,1,4.61-1.26v-.83a2.49,2.49,0,0,0-.57-1.8,2.38,2.38,0,0,0-1.31-.72,10.08,10.08,0,0,0-1.77-.14,6.18,6.18,0,0,0-.73,0,1,1,0,0,0-.44.21.58.58,0,0,0-.19.47,3.93,3.93,0,0,0,.22,1c0,.09.05.24.11.45a2,2,0,0,1,.08.52,1.36,1.36,0,0,1-.27.81,2.17,2.17,0,0,1-.68.6,1.28,1.28,0,0,1-.74.19,1.11,1.11,0,0,1-.91-.54,1.77,1.77,0,0,1-.39-1,1.09,1.09,0,0,1,.28-.72,21.07,21.07,0,0,1,2.91-2.65,7,7,0,0,1,3.07-1.47,9.69,9.69,0,0,1,1.66-.14,3.82,3.82,0,0,1,2.53.73,3.63,3.63,0,0,1,1.18,2.11,17.73,17.73,0,0,1,.33,3.58V55.1c0,.93,0,1.57.07,1.94a1.16,1.16,0,0,0,.43.82,2.26,2.26,0,0,0,1.25.26l.16.17a4.74,4.74,0,0,1-1.55,1.42,12.69,12.69,0,0,1-2.27,1.19,2.69,2.69,0,0,1-1.38.35,1.1,1.1,0,0,1-.42-.5,5.46,5.46,0,0,1-.38-1c-.23.15-.4.26-.53.33A10.57,10.57,0,0,1,145,61a7.6,7.6,0,0,1-1.87.36A3.08,3.08,0,0,1,140.22,59.48Zm7.56-.2a7.64,7.64,0,0,1-.17-1.77V52.78a10.48,10.48,0,0,0-3,1,2.93,2.93,0,0,0-1,1,2.56,2.56,0,0,0-.36,1.34,3.57,3.57,0,0,0,.61,1.94A3.11,3.11,0,0,0,145,59.21a2.92,2.92,0,0,0,1.47.41,3,3,0,0,0,1.08-.23A.92.92,0,0,0,147.78,59.28Z"/><path class="cls-1" d="M178.92,60.92v.3h-7.14v-.3a1.77,1.77,0,0,0,1.39-1.5V51.17a2.51,2.51,0,0,0-.66-1.9,2.26,2.26,0,0,0-1.62-.62,1.93,1.93,0,0,0-1,.29,2.68,2.68,0,0,0-.86.82,5.4,5.4,0,0,1,.16,1.13v8.53a1.77,1.77,0,0,0,1.39,1.5v.3h-7.15v-.3a1.76,1.76,0,0,0,1.39-1.5V51.17a2.54,2.54,0,0,0-.65-1.9,2.27,2.27,0,0,0-1.62-.62,1.77,1.77,0,0,0-.89.25,3.23,3.23,0,0,0-.83.72,4.71,4.71,0,0,1,0,.64v9.16a1.76,1.76,0,0,0,1.38,1.5v.3h-7.14v-.3a1.77,1.77,0,0,0,1.39-1.5V52.67c0-.93,0-1.57-.07-1.94a1.16,1.16,0,0,0-.43-.82,2.26,2.26,0,0,0-1.25-.26l-.17-.17a6.22,6.22,0,0,1,1.62-1.35,18.68,18.68,0,0,1,2.26-1.22c.74-.33,1.18-.46,1.33-.39s.37.34.57.79a7,7,0,0,1,.43,1.65,11.22,11.22,0,0,1,2.49-1.65,5.48,5.48,0,0,1,2-.68,4,4,0,0,1,3.57,2.55,10.29,10.29,0,0,1,2.59-1.8,5.87,5.87,0,0,1,2.15-.75,3.65,3.65,0,0,1,1.69.46,4.12,4.12,0,0,1,1.53,1.42,4.49,4.49,0,0,1,.71,2.38v8.53A1.76,1.76,0,0,0,178.92,60.92Z"/><path class="cls-1" d="M187.73,60.92v.3h-7.14v-.3a1.76,1.76,0,0,0,1.38-1.5V52.36a9.67,9.67,0,0,0-.1-1.7,1.1,1.1,0,0,0-.45-.76,2.13,2.13,0,0,0-1.19-.25l-.17-.17a5.34,5.34,0,0,1,1.66-1.3A18.89,18.89,0,0,1,184.21,47a6.23,6.23,0,0,1,1.69-.5c.19,0,.31.2.36.61a16.21,16.21,0,0,1,.08,2v10.3A1.77,1.77,0,0,0,187.73,60.92Zm-5.47-16.27a2.39,2.39,0,0,1-.68-1.76,2.35,2.35,0,0,1,.68-1.73,2.39,2.39,0,0,1,1.76-.68,2.33,2.33,0,0,1,2.41,2.41,2.39,2.39,0,0,1-.68,1.76,2.35,2.35,0,0,1-1.73.68A2.39,2.39,0,0,1,182.26,44.65Z"/><path class="cls-1" d="M202.35,57.12A6.8,6.8,0,0,1,201,59.19a7.82,7.82,0,0,1-2.18,1.66,5.67,5.67,0,0,1-2.62.65,5.9,5.9,0,0,1-3.34-1,6.82,6.82,0,0,1-2.36-2.7,8.21,8.21,0,0,1-.86-3.75v0a8.37,8.37,0,0,1,.89-3.93A6.52,6.52,0,0,1,193,47.43a6.85,6.85,0,0,1,5.66-.58,7.92,7.92,0,0,1,1.94.9,2.16,2.16,0,0,1,1,1.07,2.94,2.94,0,0,1,0,.44,2.13,2.13,0,0,1-.35,1.19,1.13,1.13,0,0,1-1,.53,2.18,2.18,0,0,1-1.26-.43,1.37,1.37,0,0,1-.59-1.15,2.21,2.21,0,0,1,0-.39,1.78,1.78,0,0,1,.05-.28,2.06,2.06,0,0,0,.08-.6,1.15,1.15,0,0,0-.33-.84,2.52,2.52,0,0,0-1.66-.38c-.7,0-1.2.66-1.51,2a23.78,23.78,0,0,0-.46,5.13,7.24,7.24,0,0,0,1,3.82A2.76,2.76,0,0,0,198,59.17a4.1,4.1,0,0,0,2-.59A8.59,8.59,0,0,0,202,56.82Z"/><path class="cls-1" d="M232.86,58.76a6.29,6.29,0,0,1-1.44,1.31,14.26,14.26,0,0,1-1.88,1.12c-.61.3-1,.41-1.14.34q-1.08-.51-6.92-8.86h0a7.18,7.18,0,0,1-1.17-.39v6.78a1.65,1.65,0,0,0,.58,1.21,4.6,4.6,0,0,0,1.09.59v.36h-8.59v-.36a4.35,4.35,0,0,0,1.08-.59,1.61,1.61,0,0,0,.58-1.21V43.36a1.72,1.72,0,0,0-1.38-1.49v-.31h8.06a23.28,23.28,0,0,1,4.69.39,5.28,5.28,0,0,1,2.93,1.61,5.17,5.17,0,0,1,1.1,3.57,4.53,4.53,0,0,1-1.15,3.13,6.82,6.82,0,0,1-3.2,1.88q2,2.63,3.07,3.93A14.25,14.25,0,0,0,231,58a2.17,2.17,0,0,0,1.34.59l.25,0Zm-11.46-6.7a4,4,0,0,0,1.38-.35,3.76,3.76,0,0,0,1.62-1.48,5.79,5.79,0,0,0,.76-3.24c0-2.07-.39-3.4-1.16-4a3.71,3.71,0,0,0-2.24-.9,1.48,1.48,0,0,0-1.14.33,2.25,2.25,0,0,0-.28,1.33v8A1.68,1.68,0,0,0,221.4,52.06Z"/><path class="cls-1" d="M246.54,57.12a6.8,6.8,0,0,1-1.35,2.07A8,8,0,0,1,243,60.85a5.71,5.71,0,0,1-2.62.65,5.9,5.9,0,0,1-3.34-1,6.85,6.85,0,0,1-2.36-2.71,8.23,8.23,0,0,1-.86-3.77,8.55,8.55,0,0,1,.88-4,6.48,6.48,0,0,1,2.45-2.65,6.83,6.83,0,0,1,3.59-.95,6.55,6.55,0,0,1,3.95,1.15,3.65,3.65,0,0,1,1.56,3.09,3.07,3.07,0,0,1,0,.5,2.94,2.94,0,0,1-2,2.24,18.2,18.2,0,0,1-5.43,1.14A6.68,6.68,0,0,0,239.93,58a2.73,2.73,0,0,0,2.23,1.17,3.94,3.94,0,0,0,2-.59,8.57,8.57,0,0,0,2.06-1.73Zm-7.81-5c0,.36,0,1,.05,1.92a12.51,12.51,0,0,0,1.79-.42,3.16,3.16,0,0,0,1.37-.94,3.59,3.59,0,0,0,.78-2,9.28,9.28,0,0,0,.05-1.05,3.3,3.3,0,0,0-.54-2.08,1.8,1.8,0,0,0-1.48-.66C239.4,46.88,238.73,48.62,238.73,52.08Z"/><path class="cls-1" d="M263.87,60.92v.3h-7.14v-.3a1.76,1.76,0,0,0,1.38-1.5l0-10.63V46.63c0-.77,0-1.3,0-1.58a1.76,1.76,0,0,1-.49.56,1.11,1.11,0,0,1-.61.22,1.48,1.48,0,0,1-.81-.21,2.19,2.19,0,0,1-.74-.65,1.44,1.44,0,0,1-.31-.89,1.66,1.66,0,0,1,.17-.67c.11-.25.17-.41.19-.46a2.44,2.44,0,0,0,.31-.94.4.4,0,0,0-.17-.36.8.8,0,0,0-.55-.22c-.45,0-.78.4-1,1.21a9.64,9.64,0,0,0-.35,2.72v2.57h2v.8h-2V59.42a1.74,1.74,0,0,0,1.38,1.5v.3h-7.14v-.3a1.77,1.77,0,0,0,1.39-1.5V48.73h-1.22v-.8h1.22v-.75a19.81,19.81,0,0,1,.3-3.84,4,4,0,0,1,1.19-2.25,3.49,3.49,0,0,1,2.58-.66,5.6,5.6,0,0,1,2.21.62,7,7,0,0,1,1.88,1.34,17.62,17.62,0,0,1,2.61-1.3,7.37,7.37,0,0,1,1.93-.61c.21,0,.33.23.38.68s.07,1.24.07,2.37l0,15.89A1.77,1.77,0,0,0,263.87,60.92Z"/><path class="cls-1" d="M278.4,57.12a6.58,6.58,0,0,1-1.34,2.07,8,8,0,0,1-2.19,1.66,5.67,5.67,0,0,1-2.61.65,5.9,5.9,0,0,1-3.34-1,6.87,6.87,0,0,1-2.37-2.71A8.35,8.35,0,0,1,265.7,54a8.55,8.55,0,0,1,.88-4A6.48,6.48,0,0,1,269,47.41a6.8,6.8,0,0,1,3.59-.95,6.52,6.52,0,0,1,3.94,1.15,3.64,3.64,0,0,1,1.57,3.09,3.07,3.07,0,0,1,0,.5,2.94,2.94,0,0,1-2,2.24,18.2,18.2,0,0,1-5.43,1.14A6.68,6.68,0,0,0,271.8,58,2.71,2.71,0,0,0,274,59.14a3.94,3.94,0,0,0,2-.59,8.57,8.57,0,0,0,2.06-1.73Zm-7.8-5c0,.36,0,1,0,1.92a12.84,12.84,0,0,0,1.79-.42,3.22,3.22,0,0,0,1.37-.94,3.67,3.67,0,0,0,.77-2,7.14,7.14,0,0,0,.06-1.05,3.3,3.3,0,0,0-.54-2.08,1.8,1.8,0,0,0-1.48-.66C271.27,46.88,270.6,48.62,270.6,52.08Z"/><path class="cls-1" d="M292.91,57.12a6.58,6.58,0,0,1-1.34,2.07,8,8,0,0,1-2.19,1.66,5.67,5.67,0,0,1-2.61.65,5.9,5.9,0,0,1-3.34-1,6.84,6.84,0,0,1-2.37-2.7,8.21,8.21,0,0,1-.86-3.75v0a8.49,8.49,0,0,1,.89-3.93,6.52,6.52,0,0,1,2.46-2.66,6.88,6.88,0,0,1,5.67-.58,7.84,7.84,0,0,1,1.93.9,2.06,2.06,0,0,1,1,1.07,2,2,0,0,1-.29,1.63,1.14,1.14,0,0,1-1,.53,2.18,2.18,0,0,1-1.26-.43,1.35,1.35,0,0,1-.6-1.15,2.21,2.21,0,0,1,0-.39c0-.11,0-.2.06-.28a2.47,2.47,0,0,0,.08-.6,1.15,1.15,0,0,0-.33-.84,2.54,2.54,0,0,0-1.66-.38c-.71,0-1.21.66-1.51,2a23.16,23.16,0,0,0-.46,5.13,7.15,7.15,0,0,0,1,3.82,2.76,2.76,0,0,0,2.34,1.33,4.06,4.06,0,0,0,2-.59,8.23,8.23,0,0,0,2.08-1.76Z"/><path class="cls-1" d="M301.47,58.56A5.9,5.9,0,0,1,300,59.87a17.68,17.68,0,0,1-2.16,1.19,4.66,4.66,0,0,1-1.45.49c-.13,0-.29-.16-.49-.49a5.13,5.13,0,0,1-.48-1.37,8.79,8.79,0,0,1-.2-1.9v-10H294v-.25a4.18,4.18,0,0,0,1.4-.68A12.78,12.78,0,0,0,299,43h.53v3.93h1.88v.81h-1.88V55.1a20.88,20.88,0,0,0,.07,2.14,1.2,1.2,0,0,0,.43.88,2,2,0,0,0,1.24.28Z"/><path class="cls-1" d="M310.36,60.92v.3h-7.15v-.3a1.77,1.77,0,0,0,1.39-1.5V52.36a10.78,10.78,0,0,0-.1-1.7,1.11,1.11,0,0,0-.46-.76,2.11,2.11,0,0,0-1.19-.25l-.16-.17a5.34,5.34,0,0,1,1.66-1.3A18.89,18.89,0,0,1,306.84,47a6.23,6.23,0,0,1,1.69-.5c.18,0,.3.2.36.61a18.48,18.48,0,0,1,.08,2v10.3A1.77,1.77,0,0,0,310.36,60.92Zm-5.47-16.27a2.39,2.39,0,0,1-.68-1.76,2.35,2.35,0,0,1,.68-1.73,2.58,2.58,0,0,1,3.49,0,2.35,2.35,0,0,1,.68,1.73,2.47,2.47,0,0,1-4.17,1.76Z"/><path class="cls-1" d="M313.86,59.42A7.43,7.43,0,0,1,312,54a8.64,8.64,0,0,1,.9-4,6.51,6.51,0,0,1,2.5-2.67,7.1,7.1,0,0,1,3.66-.94,6.77,6.77,0,0,1,5.2,2,8.18,8.18,0,0,1,1.89,5.71,7.74,7.74,0,0,1-.9,3.76,6.52,6.52,0,0,1-2.51,2.59,7.15,7.15,0,0,1-3.65.93A6.9,6.9,0,0,1,313.86,59.42Zm6.42.82a6,6,0,0,0,.9-2.06,12.82,12.82,0,0,0,.36-3.24c0-.41,0-.72,0-.94a20.41,20.41,0,0,0-.52-4,7.5,7.5,0,0,0-1-2.42,1.49,1.49,0,0,0-1.14-.8,1.43,1.43,0,0,0-1.06.69,5.82,5.82,0,0,0-.87,2.09,14.35,14.35,0,0,0-.34,3.39c0,.54,0,1,0,1.25a17.86,17.86,0,0,0,.54,3.71,7.3,7.3,0,0,0,1,2.27c.37.5.72.74,1.08.74A1.43,1.43,0,0,0,320.28,60.24Z"/><path class="cls-1" d="M343.53,60.92v.3h-7.15v-.3a1.77,1.77,0,0,0,1.39-1.5v-8.5a2.5,2.5,0,0,0-.65-1.89,2.26,2.26,0,0,0-1.62-.63,1.74,1.74,0,0,0-.9.27,2.69,2.69,0,0,0-.82.73l0,.86v9.16a1.74,1.74,0,0,0,1.38,1.5v.3h-7.14v-.3a1.74,1.74,0,0,0,1.38-1.5V52.67a17.09,17.09,0,0,0-.07-1.94,1.12,1.12,0,0,0-.43-.82,2.22,2.22,0,0,0-1.24-.26l-.17-.17a5.9,5.9,0,0,1,1.51-1.3A16.43,16.43,0,0,1,331.19,47a4.78,4.78,0,0,1,1.45-.5c.17,0,.36.21.57.64a5.82,5.82,0,0,1,.49,1.6,11.57,11.57,0,0,1,2.5-1.66,5.42,5.42,0,0,1,2-.69,3.65,3.65,0,0,1,1.69.46,4.22,4.22,0,0,1,1.54,1.42,4.58,4.58,0,0,1,.7,2.39v8.77A1.76,1.76,0,0,0,343.53,60.92Z"/><path class="cls-1" d="M347.58,61.21a10.77,10.77,0,0,1-2-.69,2.18,2.18,0,0,1-.91-.65.6.6,0,0,1,0-.23,4.76,4.76,0,0,1,.43-1.64,6,6,0,0,1,1-1.68l.27.11a5.65,5.65,0,0,0,.35,2.06,4,4,0,0,0,1.22,1.8A3.1,3.1,0,0,0,350,61a5.37,5.37,0,0,0,2.44-.56A1.71,1.71,0,0,0,353.58,59a1.81,1.81,0,0,0-.2-.94,2.5,2.5,0,0,0-.94-.86,9.86,9.86,0,0,0-2.13-.89,13.46,13.46,0,0,1-4.07-1.92,3.25,3.25,0,0,1-1.39-2.65,5.29,5.29,0,0,1,.72-2.72,5.13,5.13,0,0,1,2-1.94,5.73,5.73,0,0,1,2.84-.71,12.21,12.21,0,0,1,2.59.24,7.6,7.6,0,0,1,1.69.52c.4.2.62.36.68.49a1.63,1.63,0,0,1-.11.84,12.42,12.42,0,0,1-.53,1.45,4.64,4.64,0,0,1-.69,1.2l-.28-.11a4.79,4.79,0,0,0-.33-1.9,3.82,3.82,0,0,0-1.12-1.57,3.16,3.16,0,0,0-1.9-.69,2.19,2.19,0,0,0-1.27.35,2.94,2.94,0,0,0-1,.95,2.22,2.22,0,0,0-.36,1.17,1.75,1.75,0,0,0,.32,1.08,2.78,2.78,0,0,0,1.15.76,17,17,0,0,0,2.49.73,7.2,7.2,0,0,1,3.52,1.69,4,4,0,0,1,1.13,2.91,4.32,4.32,0,0,1-1.8,3.68A7.51,7.51,0,0,1,350,61.5,10.27,10.27,0,0,1,347.58,61.21Z"/><path class="cls-1" d="M89,75.19c1.76,0,2.44,1.11,2.44,2.76v1.24c0,1.8-.83,2.69-2.63,2.69H87.34v4.68H86.6V75.19Zm-.19,6c1.31,0,1.88-.59,1.88-2V77.9c0-1.23-.42-2-1.69-2H87.34V81.2Z"/><path class="cls-1" d="M109.51,77.94v.24h-.72v-.29c0-1.2-.45-2.11-1.68-2.11s-1.69.89-1.69,2.09c0,2.76,4.11,2.81,4.11,5.94,0,1.64-.72,2.84-2.46,2.84s-2.45-1.2-2.45-2.84v-.58h.72v.63c0,1.22.47,2.1,1.72,2.1s1.72-.88,1.72-2.1c0-2.73-4.11-2.77-4.11-5.94,0-1.7.75-2.81,2.42-2.82S109.51,76.3,109.51,77.94Z"/><path class="cls-1" d="M125.13,82.19l-2.55-7h.78l2.18,6,2.17-6h.73l-2.56,7v4.37h-.75Z"/><path class="cls-1" d="M146.32,78v.94h-.71v-1c0-1.22-.48-2.14-1.73-2.14s-1.72.92-1.72,2.14v5.91c0,1.22.47,2.13,1.72,2.13s1.73-.91,1.73-2.13V82.48h.71v1.3c0,1.64-.71,2.87-2.45,2.87s-2.45-1.23-2.45-2.87V78c0-1.64.71-2.87,2.45-2.87S146.32,76.33,146.32,78Z"/><path class="cls-1" d="M160.46,81.22v5.34h-.74V75.19h.74v5.34H164V75.19h.77V86.56H164V81.22Z"/><path class="cls-1" d="M178.2,78c0-1.66.76-2.87,2.48-2.87s2.52,1.21,2.52,2.87v5.81c0,1.66-.77,2.87-2.52,2.87s-2.48-1.21-2.48-2.87Zm.74,5.86c0,1.23.49,2.14,1.74,2.14s1.77-.91,1.77-2.14V77.92c0-1.23-.5-2.14-1.77-2.14s-1.74.91-1.74,2.14Z"/><path class="cls-1" d="M196.61,86.56V75.19h.75V85.87h3.57v.69Z"/><path class="cls-1" d="M214.18,78c0-1.66.76-2.87,2.48-2.87s2.52,1.21,2.52,2.87v5.81c0,1.66-.76,2.87-2.52,2.87s-2.48-1.21-2.48-2.87Zm.74,5.86c0,1.23.49,2.14,1.74,2.14s1.77-.91,1.77-2.14V77.92c0-1.23-.5-2.14-1.77-2.14s-1.74.91-1.74,2.14Z"/><path class="cls-1" d="M237.45,78v.84h-.72v-.89c0-1.22-.47-2.14-1.72-2.14s-1.72.92-1.72,2.14v5.91c0,1.22.47,2.13,1.72,2.13s1.72-.91,1.72-2.13V81.38h-1.51V80.7h2.23v3.08c0,1.64-.72,2.87-2.46,2.87s-2.45-1.23-2.45-2.87V78c0-1.64.72-2.87,2.45-2.87S237.45,76.33,237.45,78Z"/><path class="cls-1" d="M253,82.19l-2.55-7h.78l2.18,6,2.17-6h.73l-2.56,7v4.37H253Z"/><path class="cls-1" d="M268.66,86.56h-.25V85.13h.72v1.36l-.47,1.3h-.33Z"/><path class="cls-1" d="M299.65,75.19c1.76,0,2.44,1.11,2.44,2.76v1.24c0,1.8-.83,2.69-2.63,2.69h-1.41v4.68h-.75V75.19Zm-.19,6c1.31,0,1.88-.59,1.88-2V77.9c0-1.23-.42-2-1.69-2h-1.6V81.2Z"/><path class="cls-1" d="M315.42,86.56V75.19h.75V85.87h3.57v.69Z"/><path class="cls-1" d="M333,86.56V75.19h.75V85.87h3.57v.69Z"/><path class="cls-1" d="M355.51,78v.94h-.71v-1c0-1.22-.47-2.14-1.72-2.14s-1.73.92-1.73,2.14v5.91c0,1.22.48,2.13,1.73,2.13s1.72-.91,1.72-2.13V82.48h.71v1.3c0,1.64-.71,2.87-2.45,2.87s-2.45-1.23-2.45-2.87V78c0-1.64.71-2.87,2.45-2.87S355.51,76.33,355.51,78Z"/><path class="cls-1" d="M64.82,16.62A14.64,14.64,0,1,1,79.45,31.26,14.64,14.64,0,0,1,64.82,16.62Zm27,5.24c2-5.14-4.28-3-9-7.67C78.68,10,82.61,1.56,75.38,3.8a13.45,13.45,0,0,0,4.06,26.27A13.22,13.22,0,0,0,91.83,21.86Z"/></svg>